<svg width="30" height="37" viewBox="0 0 30 37" fill="none" xmlns="http://www.w3.org/2000/svg">
<path fill-rule="evenodd" clip-rule="evenodd" d="M22.2798 3.42616C25.854 4.72676 28.0506 4.72676 28.0506 4.72676L29.6998 4.85696V22.7966C29.6998 29.4284 16.509 36.5768 14.9998 36.5768C13.3506 36.5768 0.299805 29.4284 0.299805 22.7966V4.85696L2.0848 4.72676C2.0848 4.72676 4.1456 4.59656 7.8556 3.42616C11.5656 2.12836 14.0366 0.697558 14.0366 0.697558L14.9998 0.176758L16.0974 0.697558C16.0974 0.697558 18.434 2.12836 22.2798 3.42616ZM7.16797 19.417L14.0364 25.3978L24.3404 13.1772L21.868 10.9666L13.6248 20.7176L9.22877 16.9474L7.16797 19.417Z" fill="#6B7CFF"/>
</svg>
